<svg width="24" height="24" viewBox="0 0 24 24" fill="none" xmlns="http://www.w3.org/2000/svg">
<path d="M6 18.9327H9V13.9807C9 13.7001 9.096 13.4651 9.288 13.2756C9.48 13.0861 9.71733 12.991 10 12.9903H14C14.2833 12.9903 14.521 13.0854 14.713 13.2756C14.905 13.4657 15.0007 13.7008 15 13.9807V18.9327H18V10.0192L12 5.56246L6 10.0192V18.9327ZM4 18.9327V10.0192C4 9.70557 4.071 9.40846 4.213 9.12785C4.355 8.84724 4.55067 8.61615 4.8 8.43458L10.8 3.97785C11.15 3.71375 11.55 3.5817 12 3.5817C12.45 3.5817 12.85 3.71375 13.2 3.97785L19.2 8.43458C19.45 8.61615 19.646 8.84724 19.788 9.12785C19.93 9.40846 20.0007 9.70557 20 10.0192V18.9327C20 19.4774 19.804 19.9438 19.412 20.3321C19.02 20.7203 18.5493 20.9141 18 20.9134H14C13.7167 20.9134 13.4793 20.8183 13.288 20.6282C13.0967 20.438 13.0007 20.203 13 19.923V14.9711H11V19.923C11 20.2037 10.904 20.439 10.712 20.6292C10.52 20.8193 10.2827 20.9141 10 20.9134H6C5.45 20.9134 4.97933 20.7196 4.588 20.3321C4.19667 19.9445 4.00067 19.478 4 18.9327Z" fill="#767676"/>
</svg>
