<svg width="24" height="24" viewBox="0 0 24 24" fill="none" xmlns="http://www.w3.org/2000/svg">
<path fill-rule="evenodd" clip-rule="evenodd" d="M3 4.00101C3 3.73579 3.10536 3.48144 3.29289 3.2939C3.48043 3.10636 3.73478 3.00101 4 3.00101H20C20.2652 3.00101 20.5196 3.10636 20.7071 3.2939C20.8946 3.48144 21 3.73579 21 4.00101V18.001C21 18.7967 20.6839 19.5597 20.1213 20.1223C19.5587 20.6849 18.7956 21.001 18 21.001H6C5.20435 21.001 4.44129 20.6849 3.87868 20.1223C3.31607 19.5597 3 18.7967 3 18.001V4.00101ZM9.01 12C9.01 11.6022 8.85197 11.2207 8.57066 10.9393C8.28936 10.658 7.90782 10.5 7.51 10.5H7.5C7.10218 10.5 6.72064 10.658 6.43934 10.9393C6.15804 11.2207 6 11.6022 6 12V12.01C6 12.4078 6.15804 12.7894 6.43934 13.0707C6.72064 13.352 7.10218 13.51 7.5 13.51H7.51C7.90782 13.51 8.28936 13.352 8.57066 13.0707C8.85197 12.7894 9.01 12.4078 9.01 12.01V12ZM13.51 12C13.51 11.6022 13.352 11.2207 13.0707 10.9393C12.7894 10.658 12.4078 10.5 12.01 10.5H12C11.6022 10.5 11.2206 10.658 10.9393 10.9393C10.658 11.2207 10.5 11.6022 10.5 12V12.01C10.5 12.4078 10.658 12.7894 10.9393 13.0707C11.2206 13.352 11.6022 13.51 12 13.51H12.01C12.4078 13.51 12.7894 13.352 13.0707 13.0707C13.352 12.7894 13.51 12.4078 13.51 12.01V12ZM16.51 10.5C16.9078 10.5 17.2894 10.658 17.5707 10.9393C17.852 11.2207 18.01 11.6022 18.01 12V12.01C18.01 12.4078 17.852 12.7894 17.5707 13.0707C17.2894 13.352 16.9078 13.51 16.51 13.51H16.5C16.1022 13.51 15.7206 13.352 15.4393 13.0707C15.158 12.7894 15 12.4078 15 12.01V12C15 11.6022 15.158 11.2207 15.4393 10.9393C15.7206 10.658 16.1022 10.5 16.5 10.5H16.51Z" fill="#66A1F7"/>
</svg>
