<svg width="24" height="24" viewBox="0 0 24 24" fill="none" xmlns="http://www.w3.org/2000/svg">
<path d="M12 22C10.75 22 9.57931 21.7627 8.48798 21.288C7.39664 20.8133 6.44664 20.1717 5.63798 19.363C4.82931 18.5543 4.18764 17.6043 3.71298 16.513C3.23831 15.4217 3.00064 14.2507 2.99998 13C2.99931 11.7493 3.23698 10.5787 3.71298 9.48801C4.18898 8.39734 4.83031 7.44734 5.63698 6.63801C6.44364 5.82867 7.39364 5.18701 8.48698 4.71301C9.58031 4.23901 10.7513 4.00134 12 4.00001C13.2486 3.99867 14.4196 4.23634 15.513 4.71301C16.6063 5.18967 17.5563 5.83134 18.363 6.63801C19.1696 7.44467 19.8113 8.39467 20.288 9.48801C20.7646 10.5813 21.002 11.752 21 13C20.998 14.248 20.7606 15.419 20.288 16.513C19.8153 17.607 19.1736 18.557 18.363 19.363C17.5523 20.169 16.6023 20.8107 15.513 21.288C14.4236 21.7653 13.2526 22.0027 12 22ZM14.8 17.2L16.2 15.8L13 12.6V8.00001H11V13.4L14.8 17.2ZM5.59998 2.35001L6.99998 3.75001L2.74998 8.00001L1.34998 6.60001L5.59998 2.35001ZM18.4 2.35001L22.65 6.60001L21.25 8.00001L17 3.75001L18.4 2.35001Z" fill="#66A1F7"/>
</svg>
