<svg width="20" height="20" viewBox="0 0 20 20" fill="none" xmlns="http://www.w3.org/2000/svg">
<g clip-path="url(#clip0_168_6010)">
<path d="M15.5556 7.22206C15.5556 13.3332 18.3334 12.7776 18.3334 15.5554C18.3334 15.5554 18.3334 16.6665 17.2223 16.6665H2.77786C1.66675 16.6665 1.66675 15.5554 1.66675 15.5554C1.66675 12.7776 4.44453 13.3332 4.44453 7.22206C4.44453 4.15428 6.93175 1.6665 10.0001 1.6665C13.0684 1.6665 15.5556 4.15428 15.5556 7.22206Z" fill="#FFAC33"/>
<path d="M9.99992 3.33333C10.9204 3.33333 11.6666 2.58714 11.6666 1.66667C11.6666 0.746192 10.9204 0 9.99992 0C9.07944 0 8.33325 0.746192 8.33325 1.66667C8.33325 2.58714 9.07944 3.33333 9.99992 3.33333Z" fill="#FFAC33"/>
<path d="M10.0001 20.0001C10.5894 20.0001 11.1547 19.7659 11.5714 19.3492C11.9882 18.9324 12.2223 18.3672 12.2223 17.7778H7.77783C7.77783 18.3672 8.01196 18.9324 8.42871 19.3492C8.84545 19.7659 9.41068 20.0001 10.0001 20.0001Z" fill="#FFAC33"/>
</g>
<defs>
<clipPath id="clip0_168_6010">
<rect width="20" height="20" fill="white"/>
</clipPath>
</defs>
</svg>
