<svg width="20" height="20" viewBox="0 0 20 20" fill="none" xmlns="http://www.w3.org/2000/svg">
<path d="M18.5296 12.0186C18.4859 11.0295 18.1515 10.3858 17.5453 9.82641C16.0328 8.4311 14.2125 7.09829 12.5343 5.9061C11.7562 5.35298 10.8906 4.62485 9.99059 4.28579C8.72028 3.80923 7.28434 3.97954 5.9234 4.17173C5.32809 4.25454 4.73121 4.34985 4.14684 4.48891C3.46871 4.64985 2.66246 4.84204 2.08746 5.24985C1.57028 5.61548 1.63434 6.07485 1.88746 6.49829C1.92496 6.6936 1.88903 6.87798 1.89059 7.07641C1.89371 7.44985 1.85153 7.82329 1.7609 8.18579C1.70465 8.40923 1.62653 8.62485 1.55309 8.8436C1.26559 9.69048 2.06559 10.3999 2.65934 10.8889C2.99215 11.1639 3.34684 11.4092 3.68121 11.6827C4.97809 12.7389 6.3109 13.6952 7.63903 14.6999C9.19684 15.8795 9.79059 16.2889 11.7343 15.6264C12.2593 15.4467 12.7953 15.3045 13.3328 15.167C14.0922 14.9717 15.1031 14.7874 15.8437 14.528C16.5937 14.2655 17.5609 13.917 18.1109 13.3155C18.3859 13.0155 18.5047 12.5874 18.5062 12.1874C18.5234 12.1374 18.5328 12.0827 18.5296 12.0186Z" fill="white"/>
<path d="M3.2251 5.633C3.97354 5.31737 6.91104 4.86268 7.55791 4.78768C8.10791 4.72362 8.8001 4.63612 9.34541 4.71737C9.56416 4.75331 10.272 5.12362 11.0063 5.62206C12.5063 6.64237 16.4626 9.608 16.7126 9.83768C16.7782 9.89862 17.3235 10.4174 17.0485 10.4142C16.772 10.4111 16.4954 10.4299 16.2204 10.4611C15.7517 10.5174 13.0157 11.1689 11.7735 11.4721C11.5282 11.5314 10.8626 11.6549 10.6798 11.6924C10.1595 11.7971 9.73447 11.633 9.30791 11.3361C8.42197 10.7174 2.9126 6.47206 2.76885 6.17362C2.66729 5.95956 2.87666 5.77987 3.2251 5.633Z" fill="#BDCF46"/>
<path d="M18.6642 10.9799C18.4923 10.5283 18.0876 10.1721 17.722 9.83459C16.0485 8.28928 14.2876 7.02522 12.4439 5.69553C11.9704 5.35334 11.5064 5.02366 11.0142 4.70959C10.7704 4.55334 10.4673 4.42209 10.2079 4.29241C9.34698 3.86272 8.45635 3.89397 7.52667 4.00022C5.83604 4.19397 4.20479 4.25022 2.58135 4.80491C2.12979 4.95959 1.68604 5.17366 1.58292 5.71897C1.54073 5.93928 1.6626 6.31272 1.74229 6.51116C1.80479 6.66272 1.28448 8.56741 1.20635 8.79397C1.0126 9.36272 1.29229 9.87366 1.67979 10.3002C1.89229 10.5346 7.87042 15.1424 8.02042 15.2518C8.59073 15.6705 9.04229 15.9596 9.5251 16.0971C10.136 16.2721 10.797 16.2065 11.811 15.8612C12.2189 15.7221 15.497 14.9096 17.3189 14.1893C17.9407 13.944 18.297 13.6127 18.4423 13.4549C18.6189 13.2612 18.7329 13.0158 18.797 12.758C18.836 12.6002 18.8532 12.4377 18.8548 12.2799C18.872 12.2283 18.7876 11.3049 18.6642 10.9799ZM3.2251 5.63303C3.97354 5.31741 6.91104 4.86272 7.55792 4.78772C8.10792 4.72366 8.8001 4.63616 9.34542 4.71741C9.56417 4.75334 10.272 5.12366 11.0064 5.62209C12.5064 6.64241 16.4626 9.60803 16.7126 9.83772C16.7782 9.89866 17.3235 10.4174 17.0485 10.4143C16.772 10.4112 16.4954 10.4299 16.2204 10.4612C15.7517 10.5174 13.0157 11.169 11.7735 11.4721C11.5282 11.5315 10.8626 11.6549 10.6798 11.6924C10.1595 11.7971 9.73448 11.633 9.30792 11.3362C8.42198 10.7174 2.9126 6.47209 2.76885 6.17366C2.66729 5.95959 2.87667 5.77991 3.2251 5.63303ZM2.59542 10.0315C2.44229 9.87678 1.83917 9.47834 2.00323 8.97209C2.18135 8.42678 2.35167 7.54553 2.3876 6.96428C3.06729 7.50959 9.41104 12.3518 9.80479 12.4643C10.0517 13.2268 10.0532 14.0862 9.78135 14.8393C9.74385 14.944 9.71417 15.0455 9.66885 15.1471C9.49385 15.0815 9.32354 14.9908 9.14073 14.8768C8.84385 14.6955 3.10792 10.5502 2.59542 10.0315ZM17.3814 13.208C16.811 13.6143 15.9501 13.7783 15.3876 13.9455C14.1798 14.3033 12.9626 14.6299 11.7423 14.9408C11.3782 15.0346 11.0126 15.144 10.6407 15.2049C10.7095 15.0533 10.7673 14.9002 10.8095 14.7362C10.9189 14.3049 10.9392 13.8424 10.8923 13.4018C10.8673 13.1752 10.8579 12.7627 10.8048 12.5424C10.8689 12.5377 12.3626 12.183 13.5423 11.883C14.7423 11.5783 16.1345 11.1533 16.972 11.1377C17.3032 11.1315 17.547 11.2846 17.6564 11.3752C17.9485 11.6143 18.0157 12.0565 17.9423 12.408C17.872 12.7518 17.661 13.0096 17.3814 13.208Z" fill="#2F2F2F"/>
<path d="M4.88755 9.01418C5.7938 9.70949 8.16099 11.5173 9.24849 12.347C9.5938 12.6111 9.9813 12.8829 10.7688 12.7392C11.5547 12.597 16.4672 11.3251 16.4672 11.3251C16.9157 11.2079 17.4126 11.1767 17.8704 11.2376C18.0376 11.2611 18.2001 11.3111 18.3485 11.3907C18.4001 11.4189 18.4563 11.4486 18.5032 11.4845C18.5282 11.5048 18.5454 11.5314 18.5735 11.5501C18.936 11.797 18.7141 11.0595 18.6719 10.9595C18.5719 10.7173 18.4344 10.4892 18.2751 10.2814C18.1485 10.1173 18.0079 9.96262 17.8547 9.82043C16.1813 8.27668 14.3313 6.93762 12.4876 5.60793C12.0141 5.26574 11.5469 4.91105 11.0532 4.59543C10.8094 4.43918 10.5626 4.28605 10.3032 4.15637C9.4438 3.72668 8.4813 3.77043 7.55161 3.87668C5.86255 4.07043 4.17193 4.16574 2.55005 4.72043C2.09693 4.87512 1.55161 5.16574 1.44849 5.71262C1.4063 5.93293 1.4063 6.3173 1.79536 6.65949C2.07974 6.91262 3.6938 8.09699 4.88755 9.01418Z" fill="#006CA2"/>
</svg>
