<svg width="24" height="24" viewBox="0 0 24 24" fill="none" xmlns="http://www.w3.org/2000/svg">
<circle cx="11.5" cy="11.5" r="7.5" fill="white"/>
<path d="M12 1.5C14.7848 1.5 17.4555 2.60625 19.4246 4.57538C21.3938 6.54451 22.5 9.21523 22.5 12C22.5 14.7848 21.3938 17.4555 19.4246 19.4246C17.4555 21.3938 14.7848 22.5 12 22.5C9.21523 22.5 6.54451 21.3938 4.57538 19.4246C2.60625 17.4555 1.5 14.7848 1.5 12C1.5 9.21523 2.60625 6.54451 4.57538 4.57538C6.54451 2.60625 9.21523 1.5 12 1.5ZM12.5565 5.988C11.3355 5.988 10.3785 6.3345 9.669 7.0275C8.943 7.7205 8.5965 8.6775 8.5965 9.8985H10.4775C10.4775 9.2055 10.6095 8.661 10.89 8.2815C11.2035 7.8195 11.715 7.605 12.441 7.605C13.002 7.605 13.4475 7.7535 13.761 8.067C14.058 8.3805 14.223 8.8095 14.223 9.354C14.223 9.7665 14.0745 10.1625 13.7775 10.5255L13.5795 10.7565C12.507 11.7135 11.8635 12.4065 11.649 12.852C11.418 13.2975 11.319 13.842 11.319 14.469V14.7H13.2165V14.469C13.2165 14.073 13.299 13.7265 13.464 13.3965C13.6125 13.0995 13.827 12.819 14.124 12.5715C14.916 11.8785 15.3945 11.433 15.543 11.268C15.939 10.74 16.1535 10.0635 16.1535 9.2385C16.1535 8.232 15.8235 7.44 15.1635 6.8625C14.5035 6.2685 13.629 5.988 12.5565 5.988ZM12.2595 15.5085C11.9231 15.4994 11.5967 15.624 11.352 15.855C11.2312 15.9688 11.1362 16.1073 11.0736 16.261C11.0109 16.4147 10.9821 16.5801 10.989 16.746C10.989 17.109 11.1045 17.406 11.352 17.637C11.5949 17.8728 11.921 18.0032 12.2595 18C12.6225 18 12.9195 17.8845 13.167 17.6535C13.2904 17.5373 13.388 17.3965 13.4533 17.2401C13.5187 17.0838 13.5505 16.9154 13.5465 16.746C13.5497 16.5806 13.5191 16.4163 13.4567 16.2631C13.3943 16.11 13.3013 15.9711 13.1835 15.855C12.9324 15.6236 12.6009 15.4993 12.2595 15.5085Z" fill="#576BC8"/>
</svg>
