<svg width="20" height="20" viewBox="0 0 20 20" fill="none" xmlns="http://www.w3.org/2000/svg">
<path d="M6.66667 4.22599L1.66667 2.88654C0.746111 2.63987 0 3.18599 0 4.1071V15.2182C0 16.1382 0.746111 17.0843 1.66667 17.3315L6.66667 18.671V4.22599ZM13.3333 16.8849L18.3333 18.2243C19.2533 18.4704 20 17.9243 20 17.0043V5.89321C20 4.97265 19.2533 4.02654 18.3333 3.77987L13.3333 2.44043V16.8849Z" fill="#CCD6DD"/>
<path d="M13.3334 16.8844L6.66675 18.6705V4.22605L13.3334 2.43994V16.8844Z" fill="#E1E8ED"/>
<path d="M6.66664 5.33745L2.2222 4.14634C1.60886 3.98189 1.11108 4.34634 1.11108 4.95967V14.9597C1.11108 15.573 1.60886 16.2041 2.2222 16.368L6.66664 17.5597V5.33745ZM17.7778 4.74189L13.3333 3.55078V15.773L17.7778 16.9641C18.3911 17.1286 18.8889 16.7647 18.8889 16.1502V6.15023C18.8889 5.53745 18.3911 4.90634 17.7778 4.74189Z" fill="#55ACEE"/>
<path d="M13.3334 15.7735L6.66675 17.5596V5.33738L13.3334 3.55127V15.7735Z" fill="#88C9F9"/>
<path d="M6.66677 11.9478C6.51788 11.9511 6.33622 12.0055 6.19733 12.0283C5.9551 12.0689 6.01455 12.3155 5.9401 12.2744C5.76812 12.182 5.61509 12.058 5.48899 11.9089C5.30177 11.69 5.62788 11.6439 5.72122 11.5633C5.81455 11.4828 5.54566 11.4678 5.45177 11.3789C5.35788 11.2905 5.1901 11.4367 5.04122 11.2255C4.89122 11.0167 4.9851 10.7867 4.96733 10.57C4.94844 10.3533 5.20955 10.3805 5.37788 10.3844C5.54622 10.3861 5.67677 10.4644 5.67677 10.7189C5.67677 10.9722 5.88233 11.1122 5.82622 10.8C5.7701 10.4878 5.88233 10.435 5.95677 10.3055C6.03122 10.1778 6.16233 9.99999 6.3301 9.72776C6.45288 9.52888 6.54622 9.57054 6.66677 9.63665V7.77832C6.63622 7.75388 6.60566 7.72832 6.5751 7.71554C6.40677 7.64221 6.62844 8.13388 6.49788 8.33165C6.36622 8.52943 6.16566 8.43888 5.95899 8.38388C5.75399 8.32888 5.56288 8.0811 5.71288 7.82443C5.86177 7.56776 6.14733 7.67554 6.29677 7.46165C6.44621 7.24776 5.7651 7.08832 5.52233 6.93888C5.27899 6.78832 4.98733 6.71165 4.74455 6.85776C4.50177 7.00443 3.98177 6.93165 3.77622 6.9611C3.57066 6.9911 3.53399 6.7561 3.49677 6.5761C3.45955 6.39721 3.13399 6.39332 2.79844 6.38832C2.46177 6.38276 1.83122 6.54443 1.93899 7.36554C1.97677 7.6511 2.2751 7.43443 2.33177 7.38554C2.38844 7.33665 2.66788 7.49665 2.70455 7.73943C2.74233 7.98332 2.72399 8.23221 2.64955 8.42388C2.57344 8.61554 2.83622 8.98276 2.9851 9.31943C3.13455 9.65554 3.30344 9.70054 3.37788 9.7211C3.45288 9.7411 3.88233 10.0472 3.86399 10.2744C3.84566 10.5028 4.25622 10.825 4.42455 11.0189C4.59288 11.2128 4.69899 11.3867 4.91733 11.4889C5.13566 11.5911 5.39066 12.0639 5.50288 12.1361C5.58899 12.1917 5.7351 12.3867 5.82288 12.4583C5.70733 12.5928 5.48288 12.8739 5.48288 13.03C5.48288 13.2428 5.72733 13.6428 5.82066 13.7522C5.91344 13.8611 6.18177 13.9978 6.23788 14.2244C6.29399 14.4505 6.19899 15.1389 6.03122 15.2839C5.86233 15.4294 5.80122 15.8633 5.80122 15.8633C5.80122 15.8633 5.86066 16.0261 6.05955 15.9322C6.23122 15.8522 6.49066 15.6178 6.66733 15.4872V11.9478H6.66677Z" fill="#5C913B"/>
<path d="M6.81564 9.67367C6.76008 9.68256 6.71175 9.68033 6.66675 9.67978V7.82145C6.80786 7.85756 6.95119 7.99756 7.05953 8.23033C7.18953 8.51311 7.39508 8.267 7.47008 8.43811C7.54453 8.60922 7.95619 8.85922 7.75064 8.85033C7.54453 8.842 7.33897 8.85478 7.28341 9.10256C7.22675 9.35145 7.37675 9.54367 7.22675 9.56256C7.07675 9.58145 7.02119 9.64145 6.81564 9.67367ZM8.25453 12.7614C8.0123 12.7203 8.05508 12.7487 7.90564 12.4287C7.75675 12.1081 7.66619 12.0159 7.33008 12.0642C6.99397 12.1126 7.00619 12.1398 6.91286 11.9737C6.87286 11.9026 6.77897 11.9281 6.66675 11.9909V15.5298C6.71675 15.4664 6.76119 15.4126 6.79341 15.3814C7.08955 15.0995 7.36195 14.7937 7.60786 14.467C7.86897 14.122 7.77453 13.9537 7.90508 13.6442C8.03619 13.3342 8.20564 13.3014 8.42953 13.0081C8.65453 12.7137 8.4973 12.8037 8.25453 12.7614ZM13.3334 8.73922V5.23145C13.3112 5.23367 13.2956 5.23811 13.2723 5.23978C13.1562 5.24589 13.0045 5.31478 12.8395 5.41756C12.8262 5.41478 12.814 5.40867 12.8006 5.40589C12.3029 5.30867 12.0717 6.07533 11.6679 6.04589C11.2629 6.01645 10.7234 5.85478 10.3723 6.33145C10.0217 6.80756 9.94064 7.18145 10.3723 7.05033C10.804 6.91922 11.1012 6.25867 11.3167 6.44533C11.5323 6.632 11.4779 6.84589 10.9656 7.05922C10.4534 7.27311 9.90008 7.51311 9.60341 7.59256C9.30675 7.672 9.23953 7.88922 9.44119 8.04922C9.64286 8.20922 9.31953 8.31089 8.9823 8.61589C8.64508 8.91978 9.06341 8.90033 9.34675 9.00756C9.63008 9.11478 9.84564 8.82811 9.9673 8.48978C10.0879 8.152 10.6106 7.64478 10.8284 7.632C11.0462 7.61922 11.0462 7.74145 11.0051 7.96645C10.9979 8.00589 11.0056 8.02367 11.0112 8.04311C10.9167 8.34311 10.839 8.61533 10.8084 8.76867C10.7935 8.87818 10.7884 8.98881 10.7934 9.09922C10.7456 9.10145 10.6917 9.11089 10.6556 9.09978C10.4123 9.02811 9.85897 8.97756 9.71064 9.12367C9.5623 9.27089 9.48175 9.40256 9.30619 9.52533C9.13008 9.647 8.41564 10.2053 8.4023 10.6831C8.38841 11.1603 8.37508 11.6998 8.65841 11.6392C8.94175 11.5787 9.63008 11.1803 9.84564 10.9237C10.0612 10.667 10.3573 10.6337 10.4523 10.837C10.5467 11.042 10.479 11.1976 10.3856 11.5892C10.2906 11.9826 10.4467 12.1242 10.5973 12.4048C10.749 12.6848 10.8701 12.8353 10.8701 13.0653C10.8701 13.2942 11.0862 13.467 11.409 12.997C11.522 12.8278 11.6215 12.6501 11.7067 12.4653C11.934 12.2048 12.1334 11.9526 12.1279 11.8564C12.1208 11.741 12.1164 11.6254 12.1145 11.5098L12.1651 11.3876C12.2356 11.2248 12.299 10.9731 12.3662 10.7459L12.3773 10.7326C12.509 10.5453 12.4801 10.5364 12.6995 10.3126C12.8462 10.1626 12.8406 10.0281 12.8184 9.93589C12.8767 9.83867 12.8929 9.78033 12.8001 9.80533L12.7912 9.80756C12.7901 9.80756 12.7884 9.81811 12.7879 9.81533C12.7751 9.73256 12.6734 9.817 12.5095 9.89756C12.3517 9.902 12.1951 9.86089 12.1384 9.69311C12.0645 9.47311 11.804 9.13978 11.7834 8.95089C11.7851 8.92811 11.7862 8.90811 11.789 8.882C11.7959 8.86185 11.8094 8.84462 11.8273 8.83311C11.8466 8.8226 11.8677 8.81599 11.8895 8.81367C11.9123 8.87533 11.9312 8.96867 11.9373 9.07145C11.9517 9.33645 12.1562 9.18033 12.1562 9.34811C12.1562 9.51645 12.4506 9.62145 12.5234 9.65256C12.544 9.66145 12.5756 9.63756 12.6117 9.59811C12.629 9.60422 12.6451 9.61645 12.6634 9.61867C12.8256 9.63589 13.1756 9.072 13.284 8.972C13.3406 8.91922 13.3417 8.82256 13.3023 8.75311L13.3334 8.73922Z" fill="#77B255"/>
<path d="M15.3521 11.2337C15.3227 11.4782 15.4544 11.3454 15.6888 11.6254C15.9238 11.9076 15.631 11.8443 15.5283 11.801C15.4255 11.7565 15.3227 11.7282 15.2066 11.5132C15.0883 11.296 15.2066 11.1271 15.2066 10.9426C15.2066 10.9426 15.3821 10.9893 15.3521 11.2337ZM15.5533 10.7332C15.7694 10.8254 15.6166 10.4654 15.6888 10.266C15.7621 10.0682 15.8644 10.0615 15.9971 10.0643C16.1283 10.0654 16.2316 9.95818 16.3199 9.84818C16.4071 9.73762 16.5688 9.59596 16.5544 9.44096C16.5399 9.28596 16.4966 9.17318 16.4366 8.97262C16.3783 8.77262 16.6121 8.76818 16.7155 8.57762C16.8177 8.38707 16.7155 8.57762 16.9494 8.57318C17.1838 8.56873 17.0816 8.54096 17.1249 8.45207C17.1694 8.36373 17.1988 8.2704 17.1549 8.07429C17.1116 7.87818 16.9494 8.01873 16.7883 7.97596C16.6277 7.93318 16.8471 7.73985 16.8616 7.54262C16.876 7.3454 17.0821 7.45096 17.2288 7.47318C17.3749 7.49485 17.4188 7.74207 17.4627 7.80485C17.5077 7.86707 17.9599 7.60207 18.0783 7.44873C18.1955 7.29596 17.9749 7.28707 18.0344 7.22485C18.0933 7.16318 17.6833 7.03762 17.5205 6.96429C17.3599 6.8904 16.9494 6.7604 16.7883 6.60373C16.6277 6.44651 16.0127 6.36707 15.8505 6.41651C15.6888 6.46429 15.586 6.33707 15.5138 6.19096C15.441 6.0454 15.1327 6.02596 15.0449 5.93151C14.9571 5.83707 14.8694 6.00207 14.751 6.0204C14.6344 6.03985 14.5905 6.04429 14.4433 5.90429C14.2971 5.76429 14.4877 5.69818 14.2833 5.55929C14.086 5.42707 13.8316 5.45818 13.3333 5.23096V8.73873C13.4205 8.74651 13.5049 8.75873 13.5355 8.76707C13.6083 8.78651 13.7844 9.0854 13.7844 9.20262C13.7844 9.31985 13.8721 9.66262 13.946 9.86651C14.0188 10.0698 14.1794 10.1476 14.3271 10.321C14.4738 10.4943 14.546 10.3971 14.546 10.3971C14.546 10.3971 14.4877 10.0948 14.4877 9.86096C14.4877 9.6254 14.6633 9.47151 14.6633 9.47151C14.6633 9.47151 14.941 9.78151 14.9566 9.85207C14.971 9.92318 15.1905 10.2165 15.206 10.3387C15.2205 10.4604 15.3377 10.6421 15.5533 10.7332ZM16.7155 9.58429C16.8177 9.62874 17.2577 9.67929 17.0233 9.39873C16.7883 9.11762 16.9644 9.23262 16.9938 8.98873C17.0233 8.74429 16.8471 8.69762 16.8471 8.69762C16.8471 8.88207 16.7299 9.05207 16.8471 9.26762C16.9638 9.48429 16.6121 9.53985 16.7155 9.58429ZM17.8288 12.5682C17.756 12.4476 17.5949 12.3543 17.4188 12.3121C17.2438 12.2698 17.2577 12.0454 17.0821 12.016C16.9066 11.9854 16.7799 11.7998 16.701 11.7315C16.5277 11.5837 16.6421 11.8476 16.701 12.1198C16.7599 12.391 16.9794 12.2565 17.1838 12.4454C17.3888 12.6343 17.4044 12.4543 17.5949 12.5726C17.7849 12.6898 17.8588 12.8615 18.0416 12.8937C18.2244 12.9265 17.9027 12.6887 17.8288 12.5682ZM16.1133 11.7726C16.2588 11.996 16.2016 11.7965 16.3933 11.7637C16.5838 11.731 16.2316 11.4521 16.1144 11.3198C15.9971 11.1876 15.881 11.1526 15.7783 11.3471C15.6616 11.5687 15.9683 11.5493 16.1133 11.7726ZM17.4483 13.2054C17.3744 13.0176 17.1605 12.8093 17.0733 12.6998C16.9849 12.5926 16.8471 12.5265 16.7299 12.5448C16.6121 12.5621 16.5394 12.4937 16.481 12.3443C16.4221 12.1965 16.3199 12.2148 16.2316 12.2087C16.1444 12.2021 15.7921 12.2748 15.5866 12.3365C15.3821 12.3993 15.2883 12.4765 15.1544 12.5904C14.9421 12.7682 15.0599 12.6487 15.1544 12.826C15.2477 13.0026 15.0505 13.4182 15.036 13.6832C15.021 13.9482 15.4116 13.7004 15.5577 13.7048C15.7044 13.7115 15.661 13.5998 15.7777 13.5304C15.8955 13.461 15.9716 13.4587 16.0994 13.626C16.2288 13.7954 16.3977 13.9654 16.3977 14.1165C16.3977 14.2665 16.861 14.6426 17.0371 14.5898C17.2127 14.5354 17.3155 14.3632 17.4766 14.2371C17.6383 14.1121 17.5799 13.7793 17.6233 13.5882C17.6683 13.3971 17.5205 13.3915 17.4483 13.2054Z" fill="#5C913B"/>
</svg>
