<svg width="20" height="20" viewBox="0 0 20 20" fill="none" xmlns="http://www.w3.org/2000/svg">
<path d="M14.6875 1.25C13.6929 1.25 12.7391 1.64509 12.0358 2.34835C11.3326 3.05161 10.9375 4.00544 10.9375 5V6.875C10.9373 7.59319 11.1433 8.29633 11.5311 8.90083C11.9189 9.50533 12.4721 9.98575 13.125 10.285V8.40625C12.7243 7.99729 12.4999 7.44754 12.5 6.875V5C12.5 4.41984 12.7305 3.86344 13.1407 3.4532C13.5509 3.04297 14.1073 2.8125 14.6875 2.8125C15.2677 2.8125 15.8241 3.04297 16.2343 3.4532C16.6445 3.86344 16.875 4.41984 16.875 5V6.09375C16.875 6.30095 16.9573 6.49966 17.1038 6.64618C17.2503 6.79269 17.449 6.875 17.6562 6.875C17.8635 6.875 18.0622 6.79269 18.2087 6.64618C18.3552 6.49966 18.4375 6.30095 18.4375 6.09375V5C18.4375 4.00544 18.0424 3.05161 17.3392 2.34835C16.6359 1.64509 15.6821 1.25 14.6875 1.25Z" fill="#D3D3D3"/>
<path d="M1.875 8.75C1.875 8.25272 2.07254 7.77581 2.42417 7.42417C2.77581 7.07254 3.25272 6.875 3.75 6.875H13.75C14.2473 6.875 14.7242 7.07254 15.0758 7.42417C15.4275 7.77581 15.625 8.25272 15.625 8.75V16.875C15.625 17.3723 15.4275 17.8492 15.0758 18.2008C14.7242 18.5525 14.2473 18.75 13.75 18.75H3.75C3.25272 18.75 2.77581 18.5525 2.42417 18.2008C2.07254 17.8492 1.875 17.3723 1.875 16.875V8.75Z" fill="#F9C23C"/>
<path d="M9.6875 12.8125C9.94985 12.6157 10.1436 12.3414 10.2414 12.0284C10.3392 11.7154 10.336 11.3795 10.2323 11.0684C10.1286 10.7573 9.92965 10.4867 9.66361 10.2949C9.39757 10.1032 9.07794 10 8.75 10C8.42206 10 8.10243 10.1032 7.83639 10.2949C7.57035 10.4867 7.37139 10.7573 7.26768 11.0684C7.16398 11.3795 7.16079 11.7154 7.25857 12.0284C7.35635 12.3414 7.55015 12.6157 7.8125 12.8125V15C7.8125 15.2486 7.91127 15.4871 8.08709 15.6629C8.2629 15.8387 8.50136 15.9375 8.75 15.9375C8.99864 15.9375 9.2371 15.8387 9.41291 15.6629C9.58873 15.4871 9.6875 15.2486 9.6875 15V12.8125Z" fill="#433B6B"/>
</svg>
