<svg width="20" height="20" viewBox="0 0 20 20" fill="none" xmlns="http://www.w3.org/2000/svg">
<path d="M17.6098 18.0726H2.92024C2.87509 18.0726 2.83037 18.0637 2.78865 18.0464C2.74693 18.0292 2.70903 18.0038 2.6771 17.9719C2.64517 17.94 2.61984 17.9021 2.60257 17.8603C2.58529 17.8186 2.57641 17.7739 2.57642 17.7287V3.03914C2.57641 2.99399 2.58529 2.94927 2.60257 2.90755C2.61984 2.86583 2.64517 2.82792 2.6771 2.79599C2.70903 2.76407 2.74693 2.73874 2.78865 2.72146C2.83037 2.70419 2.87509 2.6953 2.92024 2.69531H11.3578L17.9536 9.29117V17.7287C17.9537 17.7739 17.9448 17.8186 17.9275 17.8603C17.9102 17.902 17.8849 17.9399 17.853 17.9719C17.821 18.0038 17.7831 18.0291 17.7414 18.0464C17.6997 18.0637 17.655 18.0726 17.6098 18.0726Z" fill="#FFD469"/>
<path d="M9.48677 6.57805H4.92208C4.66376 6.57805 4.45435 6.36863 4.45435 6.11031C4.45435 5.85199 4.66376 5.64258 4.92208 5.64258H9.48677C9.74509 5.64258 9.9545 5.85199 9.9545 6.11031C9.9545 6.36863 9.74509 6.57805 9.48677 6.57805ZM9.9545 9.17184C9.9545 8.91352 9.74509 8.7041 9.48677 8.7041H4.92208C4.66376 8.7041 4.45435 8.91352 4.45435 9.17184C4.45435 9.43016 4.66376 9.63957 4.92208 9.63957H9.48677C9.74509 9.63953 9.9545 9.43016 9.9545 9.17184ZM9.9545 12.2333C9.9545 11.975 9.74509 11.7656 9.48677 11.7656H4.92208C4.66376 11.7656 4.45435 11.975 4.45435 12.2333C4.45435 12.4916 4.66376 12.7011 4.92208 12.7011H9.48677C9.74509 12.701 9.9545 12.4916 9.9545 12.2333ZM13.9063 15.2948C13.9063 15.0365 13.6968 14.8271 13.4385 14.8271H4.92208C4.66376 14.8271 4.45435 15.0365 4.45435 15.2948C4.45435 15.5531 4.66376 15.7625 4.92208 15.7625H13.4385C13.6968 15.7625 13.9063 15.5531 13.9063 15.2948ZM15.4818 12.2333C15.4818 11.975 15.2724 11.7656 15.0141 11.7656H11.863C11.6047 11.7656 11.3952 11.975 11.3952 12.2333C11.3952 12.4916 11.6047 12.7011 11.863 12.7011H15.0141C15.2724 12.701 15.4818 12.4916 15.4818 12.2333Z" fill="#597B91"/>
<path d="M11.3579 2.69531L17.9538 9.29117H12.7599C11.9856 9.29117 11.3579 8.66348 11.3579 7.88918V2.69531Z" fill="#FFB636"/>
</svg>
