<svg width="20" height="20" viewBox="0 0 20 20" fill="none" xmlns="http://www.w3.org/2000/svg">
<path d="M9.69688 16.0094C9.10229 16.0094 8.59479 16.1978 8.17438 16.5747C7.75438 16.9509 7.54313 17.4066 7.54313 17.9437C7.54313 18.549 7.75542 19.0243 8.18 19.3697C8.60563 19.7153 9.10125 19.8897 9.66781 19.8897C10.2438 19.8897 10.7463 19.7178 11.1763 19.3769C11.6058 19.0348 11.8206 18.557 11.8206 17.9434C11.8206 17.4066 11.6152 16.9502 11.2044 16.5744C10.7934 16.1984 10.2916 16.0094 9.69594 16.0094M15.7681 2.69281C15.2213 1.86281 14.4397 1.19906 13.4438 0.718125C12.4534 0.241563 11.3 0 10.0144 0C8.63031 0 7.39844 0.289375 6.35469 0.860313C5.30969 1.43219 4.50219 2.16594 3.95469 3.04094C3.40469 3.92031 3.125 4.80469 3.125 5.67031C3.125 6.13188 3.3175 6.56281 3.695 6.95031C4.07438 7.34031 4.54625 7.5375 5.0975 7.5375C6.03813 7.5375 6.67906 6.98562 7.00531 5.90312C7.3025 5.00781 7.66906 4.325 8.09281 3.8725C8.49156 3.44625 9.13844 3.23 10.0144 3.23C10.77 3.23 11.3663 3.44187 11.8394 3.87844C12.3053 4.30906 12.5322 4.82219 12.5322 5.44719C12.5322 5.76281 12.4584 6.04625 12.3106 6.31437C12.1534 6.59562 11.9575 6.85406 11.7284 7.08406C11.4862 7.32656 11.0866 7.69063 10.5403 8.16938C9.90406 8.72719 9.39062 9.21562 9.01688 9.62125C8.62625 10.0428 8.30969 10.5384 8.07312 11.0938C7.83687 11.6528 7.71688 12.32 7.71688 13.0778C7.71688 13.7244 7.89719 14.225 8.25344 14.5659C8.60594 14.9034 9.045 15.0753 9.55906 15.0753C10.5419 15.0753 11.1594 14.5381 11.3431 13.5331C11.4365 13.1152 11.5067 12.8233 11.5538 12.6575C11.5962 12.5066 11.6578 12.3516 11.7369 12.1969C11.8137 12.0462 11.9353 11.8756 12.0994 11.6891C12.2703 11.4919 12.5013 11.2606 12.7844 11.0022C13.8434 10.0553 14.5906 9.37031 15.005 8.96469C15.4325 8.54688 15.8053 8.04406 16.1131 7.47156C16.43 6.88562 16.5906 6.19531 16.5906 5.42188C16.5913 4.44344 16.3134 3.52437 15.7666 2.69156" fill="#BE212F"/>
</svg>
