<svg width="20" height="20" viewBox="0 0 20 20" fill="none" xmlns="http://www.w3.org/2000/svg">
<g clip-path="url(#clip0_168_5997)">
<path d="M20 17.9062L8.75 20L2.03125 15.8125L13.3125 13.75L20 17.9062Z" fill="#534741"/>
<path d="M13.3125 13.75L2.03125 15.8438V11.7188L13.3125 9.625V13.75Z" fill="#3E4347"/>
<path d="M20 17.9375L13.3125 13.75V9.625L20 14.8125V17.9375Z" fill="#D0D0D0"/>
<path d="M14.375 13.5625L3.125 15.6562V11.5L8.75 10.4687V11.0625L14.375 10.0625V13.5625Z" fill="#ED4C5C"/>
<path d="M16.0625 14.5312L4.78125 16.5937V12.4688L10.4062 11.4375V12.1562L16.0625 11.0625V14.5312Z" fill="#FF8736"/>
<path d="M17.7188 15.5938L6.46875 17.6562V13.5312L12.0938 12.5V13.125L17.7188 12.125V15.5938Z" fill="#83BF4F"/>
<path d="M19.4062 16.6562L8.15625 18.75V14.5938L13.7812 13.5625V14.375L19.4062 13.1875V16.6562Z" fill="#FFCE31"/>
<path d="M8.75 20L2.03125 15.8125V11.6875L8.75 16.9062V20Z" fill="#D0D0D0"/>
<path d="M20 17.9062L8.75 20V16.9062L20 14.8125V17.9062ZM11.25 8.375L0 10.4375V2.0625L11.25 0V8.375Z" fill="#3E4347"/>
<path d="M11.25 8.375L0 10.4375L2.03125 11.7188L13.3125 9.625L11.25 8.375Z" fill="#94989B"/>
<path d="M0 2.0625L1.03125 2.6875L2.03125 11.6875L0 10.4375V2.0625ZM11.25 0L12.2812 0.625L13.3125 9.625L11.25 8.375V0Z" fill="#D0D0D0"/>
<path d="M11.25 0L0 2.0625L1.03125 2.6875L12.2812 0.625L11.25 0Z" fill="#94989B"/>
</g>
<defs>
<clipPath id="clip0_168_5997">
<rect width="20" height="20" fill="white"/>
</clipPath>
</defs>
</svg>
