<svg width="20" height="20" viewBox="0 0 20 20" fill="none" xmlns="http://www.w3.org/2000/svg">
<g clip-path="url(#clip0_168_6025)">
<path d="M10 20C15.5228 20 20 15.5228 20 10C20 4.47715 15.5228 0 10 0C4.47715 0 0 4.47715 0 10C0 15.5228 4.47715 20 10 20Z" fill="#5805FF"/>
<mask id="mask0_168_6025" style="mask-type:luminance" maskUnits="userSpaceOnUse" x="0" y="0" width="20" height="20">
<path d="M10 20C15.5228 20 20 15.5228 20 10C20 4.47715 15.5228 0 10 0C4.47715 0 0 4.47715 0 10C0 15.5228 4.47715 20 10 20Z" fill="white"/>
</mask>
<g mask="url(#mask0_168_6025)">
<path d="M15.6011 18.2319C21.1239 18.2319 25.6011 13.7548 25.6011 8.23193C25.6011 2.70909 21.1239 -1.76807 15.6011 -1.76807C10.0782 -1.76807 5.60107 2.70909 5.60107 8.23193C5.60107 13.7548 10.0782 18.2319 15.6011 18.2319Z" fill="url(#paint0_radial_168_6025)"/>
</g>
<mask id="mask1_168_6025" style="mask-type:luminance" maskUnits="userSpaceOnUse" x="0" y="0" width="20" height="20">
<path d="M10 20C15.5228 20 20 15.5228 20 10C20 4.47715 15.5228 0 10 0C4.47715 0 0 4.47715 0 10C0 15.5228 4.47715 20 10 20Z" fill="white"/>
</mask>
<g mask="url(#mask1_168_6025)">
<path d="M21.5134 16.4355C27.0363 16.4355 31.5134 11.9584 31.5134 6.43555C31.5134 0.912699 27.0363 -3.56445 21.5134 -3.56445C15.9906 -3.56445 11.5134 0.912699 11.5134 6.43555C11.5134 11.9584 15.9906 16.4355 21.5134 16.4355Z" fill="url(#paint1_radial_168_6025)"/>
</g>
</g>
<defs>
<radialGradient id="paint0_radial_168_6025" cx="0" cy="0" r="1" gradientUnits="userSpaceOnUse" gradientTransform="translate(1005.6 998.232) scale(995.78)">
<stop stop-color="#4600D1"/>
<stop offset="0.49285" stop-color="#4600D1"/>
<stop offset="1" stop-color="#35009F"/>
</radialGradient>
<radialGradient id="paint1_radial_168_6025" cx="0" cy="0" r="1" gradientUnits="userSpaceOnUse" gradientTransform="translate(1011.51 996.436) scale(992.06)">
<stop stop-color="#35019E"/>
<stop offset="0.1873" stop-color="#320194"/>
<stop offset="1" stop-color="#220066"/>
</radialGradient>
<clipPath id="clip0_168_6025">
<rect width="20" height="20" fill="white"/>
</clipPath>
</defs>
</svg>
