<svg width="10" height="10" viewBox="0 0 10 10" fill="none" xmlns="http://www.w3.org/2000/svg">
<path d="M8.75009 7.91665H1.25009C1.17415 7.91641 1.09972 7.89547 1.03481 7.85607C0.969888 7.81668 0.916945 7.76033 0.881672 7.69309C0.846399 7.62584 0.830134 7.55025 0.834627 7.47445C0.83912 7.39865 0.864201 7.32551 0.90717 7.2629L4.65717 1.84623C4.81259 1.62165 5.18675 1.62165 5.34259 1.84623L9.09259 7.2629C9.13599 7.32538 9.16145 7.39855 9.16618 7.47448C9.17092 7.55041 9.15476 7.62618 9.11946 7.69357C9.08415 7.76096 9.03105 7.81738 8.96593 7.85671C8.90081 7.89604 8.82616 7.91677 8.75009 7.91665Z" fill="white"/>
</svg>
