<svg width="24" height="30" viewBox="0 0 24 30" fill="none" xmlns="http://www.w3.org/2000/svg">
<path d="M21 25V26H3V25L5 23V17C5 13.9 7.03 11.17 10 10.29V10C10 9.46957 10.2107 8.96086 10.5858 8.58579C10.9609 8.21071 11.4696 8 12 8C12.5304 8 13.0391 8.21071 13.4142 8.58579C13.7893 8.96086 14 9.46957 14 10V10.29C16.97 11.17 19 13.9 19 17V23L21 25ZM14 27C14 27.5304 13.7893 28.0391 13.4142 28.4142C13.0391 28.7893 12.5304 29 12 29C11.4696 29 10.9609 28.7893 10.5858 28.4142C10.2107 28.0391 10 27.5304 10 27" fill="white"/>
<circle cx="20" cy="3" r="3" fill="#0098FF"/>
</svg>
