<svg width="26" height="26" viewBox="0 0 26 26" fill="none" xmlns="http://www.w3.org/2000/svg">
<mask id="mask0_344_5776" style="mask-type:luminance" maskUnits="userSpaceOnUse" x="1" y="1" width="24" height="24">
<path d="M13.0001 23.8332C14.423 23.8349 15.8322 23.5555 17.1468 23.011C18.4614 22.4664 19.6555 21.6675 20.6603 20.6601C21.6678 19.6552 22.4667 18.4612 23.0112 17.1466C23.5558 15.832 23.8352 14.4228 23.8334 12.9998C23.8352 11.5769 23.5558 10.1677 23.0112 8.85311C22.4667 7.53852 21.6678 6.34448 20.6603 5.3396C19.6555 4.33218 18.4614 3.53326 17.1468 2.98872C15.8322 2.44418 14.423 2.16476 13.0001 2.16651C11.5772 2.16476 10.1679 2.44418 8.85336 2.98872C7.53876 3.53326 6.34472 4.33218 5.33984 5.3396C4.33243 6.34448 3.5335 7.53852 2.98896 8.85311C2.44442 10.1677 2.165 11.5769 2.16676 12.9998C2.165 14.4228 2.44442 15.832 2.98896 17.1466C3.5335 18.4612 4.33243 19.6552 5.33984 20.6601C6.34472 21.6675 7.53876 22.4664 8.85336 23.011C10.1679 23.5555 11.5772 23.8349 13.0001 23.8332Z" fill="white" stroke="white" stroke-width="2" stroke-linejoin="round"/>
<path d="M8.66675 13L11.9167 16.25L18.4167 9.75" stroke="black" stroke-width="2" stroke-linecap="round" stroke-linejoin="round"/>
</mask>
<g mask="url(#mask0_344_5776)">
<path d="M0 0H26V26H0V0Z" fill="#0098FF"/>
</g>
</svg>
