<svg width="21" height="20" viewBox="0 0 21 20" fill="none" xmlns="http://www.w3.org/2000/svg">
<g clip-path="url(#clip0_587_7137)">
<path d="M10.8674 0.027832C5.35988 0.027832 0.895081 4.49263 0.895081 10.0002C0.895081 15.508 5.35988 19.9725 10.8674 19.9725C16.3753 19.9725 20.8398 15.508 20.8398 10.0002C20.8398 4.49263 16.3753 0.027832 10.8674 0.027832ZM10.8674 18.7456C6.05608 18.7456 2.14162 14.8115 2.14162 10.0001C2.14162 5.18879 6.05608 1.27434 10.8674 1.27434C15.6788 1.27434 19.5932 5.18881 19.5932 10.0001C19.5932 14.8115 15.6788 18.7456 10.8674 18.7456ZM14.8473 6.35123L8.99634 12.239L6.36146 9.60408C6.11807 9.36069 5.72354 9.36069 5.47984 9.60408C5.23646 9.84747 5.23646 10.242 5.47984 10.4854L8.56472 13.5706C8.80811 13.8137 9.20264 13.8137 9.44634 13.5706C9.47439 13.5425 9.4984 13.512 9.52022 13.4802L15.7292 7.23283C15.9723 6.98944 15.9723 6.59491 15.7292 6.35123C15.4855 6.10784 15.091 6.10784 14.8473 6.35123Z" fill="#617BEE"/>
</g>
<defs>
<clipPath id="clip0_587_7137">
<rect width="19.9447" height="19.9447" fill="white" transform="translate(0.895081 0.027832)"/>
</clipPath>
</defs>
</svg>
